# xmcd
#
# Track frame offsets: 
#        150
#        27178
#        44822
#        59504
#        72315
#        84457
#        105543
#        117119
#        139037
#        150028
#        165540
#        176182
#        194305
#        210766
#        233922
#        247194
#        258889
#        271043
#
# Disc length: 3692 seconds
#
# Revision: 9
# Processed by: cddbd v1.5.1PL2 Copyright (c) Steve Scherf et al.
# Submitted via: ExactAudioCopy v0.95b4
#
DISCID=f00e6a12
DTITLE=Savina Yannatou - Virgin Maries of the world
DYEAR=1999
DGENRE=Folklore
TTITLE0=Ah mon Die
TTITLE1=U lamentu di Ghjiesu
TTITLE2=Madonna de la grazia
TTITLE3=Vorskan Apher
TTITLE4=Organiko Armeniko
TTITLE5=Planctus ante nescia
TTITLE6=Como poden per sas cuplas
TTITLE7=Simeron mavros ouranos
TTITLE8=Christo Jesus (La cruz)
TTITLE9=Agnus Dei
TTITLE10=Saeta por carcelera
TTITLE11=Tara at amama salibi
TTITLE12=Rosa das Rosas
TTITLE13=Archontes afougraste mou
TTITLE14=Ave Maria, Deus ti salvet Maria
TTITLE15=Passiuna
TTITLE16=Virgjer Odhijitrie
TTITLE17=O, glyki mou ear
EXTD=
EXTT0=Traditional of the Carribean
EXTT1=Corsica
EXTT2=Italian Renaissance
EXTT3=Armenia
EXTT4=Greece
EXTT5=Carmina Burana - Traditional Medieval 9th-11th century
EXTT6=Traditional Medieval Spanish 13th century
EXTT7=Traditional, Central Greece
EXTT8=Traditional Argentina
EXTT9=Congo
EXTT10=Spain
EXTT11=Traditioanal Lebanese
EXTT12=Traditional Medieval Spanish 13th century
EXTT13=Traditional Cyprus
EXTT14=Traditional, Sardinia 13th century
EXTT15=Traditional, Southern Italy
EXTT16=Traditional, Southern Italy
EXTT17=Traditional, Byzantine Hymn
PLAYORDER=
